<?xml version="1.0" encoding="UTF-8" standalone="no"?>
<!-- Created with Inkscape (http://www.inkscape.org/) -->

<svg
   xmlns:dc="http://purl.org/dc/elements/1.1/"
   xmlns:cc="http://creativecommons.org/ns#"
   xmlns:rdf="http://www.w3.org/1999/02/22-rdf-syntax-ns#"
   xmlns:svg="http://www.w3.org/2000/svg"
   xmlns="http://www.w3.org/2000/svg"
   xmlns:sodipodi="http://sodipodi.sourceforge.net/DTD/sodipodi-0.dtd"
   xmlns:inkscape="http://www.inkscape.org/namespaces/inkscape"
   width="744.09448819"
   height="1052.3622047"
   id="svg2"
   version="1.1"
   inkscape:version="0.48.1 "
   sodipodi:docname="sphere-tracing.svg"
   inkscape:export-filename="D:\conf\2015\webglparis2015-raymarching\assets\sphere-tracing.png"
   inkscape:export-xdpi="72"
   inkscape:export-ydpi="72">
  <defs
     id="defs4" />
  <sodipodi:namedview
     id="base"
     pagecolor="#e1e1e1"
     bordercolor="#666666"
     borderopacity="1.0"
     inkscape:pageopacity="1"
     inkscape:pageshadow="2"
     inkscape:zoom="0.7"
     inkscape:cx="152.14286"
     inkscape:cy="534.28571"
     inkscape:document-units="px"
     inkscape:current-layer="layer1"
     showgrid="false"
     inkscape:window-width="1600"
     inkscape:window-height="838"
     inkscape:window-x="-8"
     inkscape:window-y="-8"
     inkscape:window-maximized="1" />
  <metadata
     id="metadata7">
    <rdf:RDF>
      <cc:Work
         rdf:about="">
        <dc:format>image/svg+xml</dc:format>
        <dc:type
           rdf:resource="http://purl.org/dc/dcmitype/StillImage" />
        <dc:title></dc:title>
      </cc:Work>
    </rdf:RDF>
  </metadata>
  <g
     inkscape:label="Layer 1"
     inkscape:groupmode="layer"
     id="layer1">
    <rect
       style="fill:#000000;fill-opacity:1;stroke:none"
       id="rect3753"
       width="225.71428"
       height="138.57143"
       x="102.85714"
       y="489.50504"
       ry="0.25253814" />
    <path
       sodipodi:type="arc"
       style="fill:#000000;fill-opacity:1;stroke:none"
       id="path3755"
       sodipodi:cx="477.85715"
       sodipodi:cy="401.64789"
       sodipodi:rx="70.714287"
       sodipodi:ry="70.714287"
       d="m 548.57143,401.64789 a 70.714287,70.714287 0 1 1 -141.42857,0 70.714287,70.714287 0 1 1 141.42857,0 z" />
    <path
       sodipodi:type="arc"
       style="fill:#000000;fill-opacity:1;stroke:none"
       id="path3757"
       sodipodi:cx="407.14285"
       sodipodi:cy="363.79074"
       sodipodi:rx="38.57143"
       sodipodi:ry="38.57143"
       d="m 445.71428,363.79074 a 38.57143,38.57143 0 1 1 -77.14286,0 38.57143,38.57143 0 1 1 77.14286,0 z" />
    <path
       sodipodi:type="arc"
       style="fill:#0060a7;fill-opacity:1;stroke:none"
       id="path3759"
       sodipodi:cx="555"
       sodipodi:cy="647.36218"
       sodipodi:rx="9.2857141"
       sodipodi:ry="9.2857141"
       d="m 564.28571,647.36218 a 9.2857141,9.2857141 0 1 1 -18.57142,0 9.2857141,9.2857141 0 1 1 18.57142,0 z" />
    <path
       style="fill:none;stroke:#0060a7;stroke-width:3;stroke-linecap:butt;stroke-linejoin:miter;stroke-opacity:1;stroke-miterlimit:4;stroke-dasharray:none;fill-opacity:1"
       d="m 554.28571,646.6479 -381.42857,-340"
       id="path3761"
       inkscape:connector-curvature="0" />
    <path
       sodipodi:type="arc"
       style="fill:none;stroke:#0060a7;stroke-width:3;stroke-linecap:butt;stroke-linejoin:miter;stroke-miterlimit:4;stroke-opacity:1;stroke-dasharray:none"
       id="path3763"
       sodipodi:cx="554.28571"
       sodipodi:cy="646.64789"
       sodipodi:rx="187.14285"
       sodipodi:ry="187.14285"
       d="m 741.42856,646.64789 a 187.14285,187.14285 0 1 1 -374.28571,0 187.14285,187.14285 0 1 1 374.28571,0 z" />
    <path
       sodipodi:type="arc"
       style="fill:none;stroke:#0060a7;stroke-width:3;stroke-linecap:butt;stroke-linejoin:miter;stroke-miterlimit:4;stroke-opacity:1;stroke-dasharray:none"
       id="path3765"
       sodipodi:cx="415.71429"
       sodipodi:cy="522.36218"
       sodipodi:rx="65.714287"
       sodipodi:ry="65.714287"
       d="m 481.42858,522.36218 a 65.714287,65.714287 0 1 1 -131.42857,0 65.714287,65.714287 0 1 1 131.42857,0 z" />
    <path
       sodipodi:type="arc"
       style="fill:none;stroke:#0060a7;stroke-width:3;stroke-linecap:butt;stroke-linejoin:miter;stroke-miterlimit:4;stroke-opacity:1;stroke-dasharray:none"
       id="path3767"
       sodipodi:cx="364.28571"
       sodipodi:cy="479.50504"
       sodipodi:rx="38.57143"
       sodipodi:ry="38.57143"
       d="m 402.85714,479.50504 a 38.57143,38.57143 0 1 1 -77.14286,0 38.57143,38.57143 0 1 1 77.14286,0 z" />
    <path
       sodipodi:type="arc"
       style="fill:none;stroke:#0060a7;stroke-width:3;stroke-linecap:butt;stroke-linejoin:miter;stroke-miterlimit:4;stroke-opacity:1;stroke-dasharray:none"
       id="path3769"
       sodipodi:cx="334.28571"
       sodipodi:cy="452.36218"
       sodipodi:rx="40"
       sodipodi:ry="40"
       d="m 374.28571,452.36218 a 40,40 0 1 1 -80,0 40,40 0 1 1 80,0 z" />
    <path
       sodipodi:type="arc"
       style="fill:none;stroke:#0060a7;stroke-width:3;stroke-linecap:butt;stroke-linejoin:miter;stroke-miterlimit:4;stroke-opacity:1;stroke-dasharray:none"
       id="path3771"
       sodipodi:cx="304.28571"
       sodipodi:cy="423.79074"
       sodipodi:rx="67.14286"
       sodipodi:ry="67.14286"
       d="m 371.42857,423.79074 a 67.14286,67.14286 0 1 1 -134.28572,0 67.14286,67.14286 0 1 1 134.28572,0 z" />
  </g>
</svg>
